<svg id="svg" version="1.1" xmlns="http://www.w3.org/2000/svg" xmlns:xlink="http://www.w3.org/1999/xlink" width="400" height="133.33333333333334" viewBox="0, 0, 400,133.33333333333334"><g id="svgg"><path id="path0" d="M31.333 85.500 C 30.646 85.565,29.896 85.694,29.667 85.788 C 29.438 85.882,28.770 86.014,28.182 86.082 C 27.595 86.150,26.883 86.302,26.599 86.420 C 26.315 86.538,25.708 86.691,25.250 86.759 C 24.792 86.827,24.267 86.976,24.083 87.091 C 23.900 87.206,23.488 87.353,23.167 87.417 C 22.846 87.480,22.417 87.638,22.214 87.766 C 22.011 87.895,21.763 88.000,21.662 88.000 C 21.342 88.000,18.587 89.303,17.250 90.086 C 16.883 90.301,16.358 90.599,16.083 90.747 C 14.742 91.473,13.658 92.146,13.417 92.405 C 13.325 92.503,12.912 92.806,12.500 93.078 C 12.088 93.350,11.637 93.670,11.500 93.789 C 6.374 98.233,3.200 102.090,0.897 106.676 C 0.663 107.141,0.366 107.562,0.236 107.612 C 0.037 107.688,0.000 109.036,0.000 116.268 L 0.000 124.833 17.800 124.833 C 31.422 124.833,35.647 124.786,35.800 124.633 C 36.090 124.343,36.090 85.824,35.800 85.533 C 35.582 85.315,33.483 85.300,31.333 85.500 M383.208 116.486 C 374.110 125.553,366.667 133.052,366.667 133.152 C 366.667 133.281,371.443 133.333,383.333 133.333 L 400.000 133.333 400.000 116.667 C 400.000 107.500,399.944 100.000,399.875 100.000 C 399.806 100.000,392.306 107.419,383.208 116.486 " stroke="none" fill="#1497b0" fill-rule="evenodd"></path><path id="path1" d="M57.500 0.242 C 57.500 0.375,57.603 0.543,57.729 0.617 C 58.027 0.791,61.500 5.125,61.500 5.324 C 61.500 5.408,61.594 5.577,61.708 5.701 C 62.049 6.068,62.661 6.968,62.845 7.373 C 62.940 7.580,63.197 8.050,63.417 8.417 C 64.161 9.658,66.167 13.835,66.167 14.144 C 66.167 14.249,66.317 14.614,66.500 14.956 C 66.683 15.299,66.833 15.732,66.833 15.921 C 66.833 16.109,66.983 16.557,67.167 16.917 C 67.350 17.276,67.500 17.783,67.500 18.044 C 67.500 18.304,67.611 18.731,67.747 18.994 C 67.883 19.256,68.044 19.909,68.105 20.444 C 68.167 20.979,68.319 21.710,68.444 22.068 C 68.568 22.426,68.748 23.738,68.844 24.984 C 68.940 26.231,69.073 27.800,69.142 28.473 C 69.255 29.588,69.236 29.716,68.929 29.931 C 68.529 30.211,45.176 30.289,44.448 30.012 C 44.063 29.865,44.035 29.763,43.923 28.054 C 43.858 27.062,43.697 26.029,43.566 25.760 C 43.435 25.490,43.280 24.965,43.222 24.593 C 43.164 24.221,42.977 23.655,42.808 23.336 C 42.639 23.016,42.500 22.657,42.500 22.537 C 42.500 22.418,42.366 22.117,42.202 21.868 C 41.693 21.098,41.502 20.768,41.256 20.237 C 41.126 19.954,40.902 19.627,40.760 19.508 C 40.617 19.389,40.500 19.213,40.500 19.116 C 40.500 18.922,37.103 15.541,36.578 15.211 C 36.397 15.098,35.987 14.835,35.667 14.626 C 35.346 14.418,34.896 14.154,34.667 14.041 C 34.438 13.928,34.137 13.772,34.000 13.694 C 33.301 13.298,32.221 12.832,32.000 12.832 C 31.863 12.832,31.525 12.713,31.250 12.569 C 30.772 12.318,28.987 11.966,26.667 11.667 C 25.606 11.530,25.030 11.579,22.000 12.067 C 20.282 12.344,19.326 12.682,16.945 13.855 C 16.318 14.163,15.728 14.510,15.632 14.625 C 15.537 14.739,15.375 14.835,15.271 14.838 C 14.633 14.854,10.672 18.852,10.074 20.083 C 9.940 20.358,9.648 20.883,9.423 21.250 C 9.199 21.617,8.971 22.029,8.916 22.167 C 8.862 22.304,8.681 22.679,8.515 23.000 C 8.349 23.321,8.159 23.881,8.092 24.244 C 8.026 24.608,7.876 25.095,7.759 25.328 C 7.643 25.560,7.459 26.650,7.352 27.750 C 7.100 30.335,7.382 30.167,3.301 30.167 L 0.000 30.167 0.000 68.583 C 0.000 91.756,0.061 107.000,0.153 107.000 C 0.237 107.000,0.540 106.519,0.826 105.932 C 1.112 105.344,1.456 104.772,1.590 104.661 C 1.724 104.550,1.833 104.397,1.833 104.320 C 1.833 104.046,3.397 101.763,4.886 99.865 C 6.290 98.076,10.576 93.833,10.980 93.833 C 11.063 93.833,11.170 93.733,11.217 93.610 C 11.291 93.416,12.633 92.415,13.489 91.916 C 13.647 91.823,13.907 91.617,14.067 91.457 C 14.226 91.297,14.449 91.167,14.562 91.167 C 14.675 91.167,14.860 91.073,14.974 90.959 C 15.172 90.762,16.954 89.727,17.833 89.299 C 18.063 89.188,18.429 88.962,18.647 88.798 C 18.866 88.634,19.213 88.500,19.419 88.500 C 19.624 88.500,19.882 88.392,19.991 88.261 C 20.100 88.129,20.428 87.969,20.720 87.905 C 21.011 87.841,21.511 87.649,21.831 87.478 C 22.150 87.307,22.544 87.167,22.706 87.167 C 22.869 87.167,23.281 87.017,23.623 86.833 C 23.965 86.650,24.471 86.500,24.748 86.499 C 25.024 86.498,25.475 86.380,25.750 86.236 C 26.025 86.091,26.738 85.910,27.333 85.832 C 27.929 85.754,28.802 85.579,29.273 85.443 C 30.477 85.095,35.737 84.879,36.080 85.164 C 36.393 85.424,36.472 124.429,36.161 125.011 C 35.992 125.327,35.614 125.333,17.994 125.333 L 0.000 125.333 0.000 129.333 L 0.000 133.333 54.000 133.333 C 96.957 133.333,108.000 133.291,108.000 133.126 C 108.000 133.012,110.408 130.510,113.351 127.566 L 118.701 122.213 113.261 116.732 C 110.268 113.717,106.572 109.999,105.048 108.469 C 102.653 106.067,102.304 105.652,102.491 105.427 C 102.804 105.051,135.079 105.027,135.593 105.403 C 135.771 105.533,135.879 105.678,135.833 105.726 C 135.787 105.774,132.224 109.361,127.915 113.698 C 123.605 118.035,119.938 121.751,119.766 121.956 L 119.452 122.329 124.809 127.684 C 127.756 130.630,130.167 133.106,130.167 133.186 C 130.167 133.271,162.443 133.333,206.250 133.333 L 282.333 133.333 282.336 132.708 C 282.354 129.226,284.290 125.389,287.208 123.056 C 289.036 121.594,289.852 121.151,291.583 120.681 C 293.087 120.273,292.992 119.336,291.447 119.333 C 289.952 119.330,286.294 116.528,284.374 113.915 C 284.102 113.545,283.333 111.869,283.333 111.645 C 283.333 111.515,283.222 111.248,283.085 111.053 C 282.623 110.393,282.245 107.144,282.600 106.884 C 282.911 106.656,307.820 106.544,308.403 106.768 C 309.249 107.093,308.262 111.362,306.789 113.749 C 305.304 116.155,301.207 119.324,299.564 119.336 C 298.171 119.346,298.062 120.290,299.417 120.619 C 299.875 120.730,300.449 120.936,300.692 121.077 C 300.936 121.218,301.230 121.333,301.347 121.333 C 301.716 121.333,303.746 122.802,304.767 123.808 C 307.109 126.116,308.653 129.445,308.663 132.208 L 308.667 133.333 337.500 133.333 C 360.479 133.333,366.333 133.291,366.333 133.125 C 366.333 132.852,399.520 99.667,399.792 99.667 C 399.957 99.667,400.000 94.017,400.000 72.083 C 400.000 49.258,399.962 44.500,399.779 44.500 C 399.585 44.500,399.237 44.694,397.750 45.630 C 397.567 45.746,397.178 45.950,396.886 46.084 C 396.595 46.218,396.314 46.396,396.263 46.479 C 396.212 46.562,395.963 46.682,395.711 46.745 C 395.458 46.808,395.149 46.946,395.023 47.050 C 394.897 47.154,394.560 47.330,394.272 47.440 C 391.901 48.349,391.304 48.555,390.500 48.744 C 389.996 48.862,389.396 49.033,389.167 49.125 C 388.938 49.217,388.337 49.347,387.833 49.414 C 387.329 49.482,386.669 49.639,386.367 49.763 C 384.750 50.429,356.048 50.581,355.570 49.926 C 355.110 49.298,355.232 39.090,355.704 38.759 C 356.031 38.530,357.612 38.500,369.412 38.498 L 382.750 38.497 384.917 38.096 C 387.679 37.585,388.526 37.313,390.641 36.258 C 392.162 35.499,394.566 33.688,395.488 32.607 C 395.711 32.344,395.974 32.044,396.072 31.940 C 396.458 31.528,397.175 30.502,397.333 30.136 C 397.424 29.924,397.569 29.637,397.654 29.500 C 398.841 27.590,399.493 23.543,398.933 21.572 C 398.805 21.120,398.654 20.487,398.599 20.167 C 398.479 19.467,397.782 17.715,397.520 17.453 C 397.417 17.351,397.333 17.196,397.333 17.109 C 397.333 16.435,394.407 13.273,392.681 12.082 C 391.657 11.375,389.030 10.000,388.704 10.000 C 388.585 10.000,388.322 9.893,388.119 9.763 C 387.916 9.633,387.375 9.472,386.917 9.406 C 386.458 9.340,385.783 9.167,385.417 9.021 C 384.832 8.790,382.968 8.746,370.300 8.670 C 358.767 8.601,355.806 8.540,355.633 8.367 C 355.470 8.204,355.404 7.141,355.367 4.075 L 355.317 0.000 313.512 0.000 L 271.706 0.000 271.371 1.292 C 270.842 3.330,270.621 3.895,269.336 6.500 C 266.873 11.491,262.419 16.564,258.611 18.715 C 258.321 18.879,257.783 19.189,257.417 19.403 C 254.915 20.867,250.647 22.667,249.677 22.667 C 249.522 22.667,248.838 22.811,248.156 22.986 C 243.439 24.203,235.988 23.647,231.083 21.712 C 230.158 21.348,226.857 19.718,226.250 19.326 C 225.975 19.149,225.563 18.910,225.333 18.796 C 225.104 18.683,224.554 18.307,224.110 17.961 C 223.666 17.616,223.237 17.333,223.156 17.333 C 222.903 17.333,218.217 12.627,217.597 11.750 C 216.173 9.734,216.000 9.478,216.000 9.384 C 216.000 9.329,215.749 8.902,215.442 8.434 C 214.834 7.507,213.337 4.453,213.328 4.122 C 213.325 4.009,213.177 3.617,213.000 3.250 C 212.823 2.883,212.677 2.508,212.675 2.417 C 212.673 2.325,212.507 1.744,212.305 1.125 L 211.939 0.000 134.720 0.000 C 67.367 0.000,57.500 0.031,57.500 0.242 M224.000 0.174 C 224.000 0.331,224.608 1.629,225.286 2.917 C 226.676 5.559,232.415 10.667,233.993 10.667 C 234.089 10.667,234.448 10.817,234.790 11.000 C 235.132 11.183,235.510 11.333,235.631 11.333 C 235.751 11.333,236.054 11.439,236.305 11.568 C 237.548 12.211,241.928 12.484,244.833 12.099 C 249.388 11.495,255.037 8.169,257.123 4.863 C 257.278 4.617,257.639 4.117,257.924 3.750 C 258.394 3.148,259.833 0.410,259.833 0.119 C 259.833 0.053,251.771 0.000,241.917 0.000 C 229.605 0.000,224.000 0.054,224.000 0.174 M395.500 0.147 C 395.500 0.228,396.044 0.570,396.708 0.908 C 397.373 1.246,398.329 1.777,398.833 2.088 C 400.043 2.834,400.000 2.862,400.000 1.333 L 400.000 0.000 397.750 0.000 C 396.512 0.000,395.500 0.066,395.500 0.147 M21.308 19.593 C 23.120 20.366,23.825 20.837,25.161 22.167 C 26.470 23.468,28.302 25.932,28.781 27.033 C 29.031 27.608,29.537 27.737,30.963 27.588 C 33.885 27.284,35.221 27.489,33.646 28.000 C 33.223 28.137,32.773 28.335,32.646 28.438 C 32.520 28.541,32.241 28.680,32.026 28.746 C 30.608 29.181,29.956 30.055,30.404 30.919 C 30.535 31.171,30.690 31.761,30.749 32.230 C 30.808 32.699,30.969 33.439,31.108 33.874 C 32.075 36.911,30.220 40.661,27.681 40.804 C 25.462 40.928,24.711 40.309,26.167 39.555 C 27.309 38.964,27.761 38.469,28.128 37.407 L 28.464 36.437 28.117 35.969 C 27.750 35.473,27.113 35.343,26.883 35.717 C 26.579 36.212,25.682 36.667,25.011 36.667 C 24.043 36.667,23.925 36.266,24.695 35.595 C 25.800 34.632,25.939 33.926,25.154 33.265 C 24.554 32.760,24.307 32.733,23.728 33.113 C 22.947 33.625,21.600 32.588,21.105 31.095 C 20.348 28.808,21.751 27.649,23.418 29.185 C 24.637 30.309,25.122 29.598,24.132 28.139 C 23.129 26.661,20.899 24.833,20.098 24.833 C 19.897 24.833,19.643 24.743,19.533 24.633 C 18.762 23.862,20.943 23.566,22.267 24.263 C 23.339 24.827,26.167 27.767,26.167 28.318 C 26.167 28.418,26.242 28.500,26.333 28.500 C 26.574 28.500,26.539 27.708,26.292 27.550 C 26.177 27.477,25.953 27.154,25.793 26.833 C 25.292 25.829,25.158 25.650,23.660 23.982 C 23.116 23.377,22.351 22.664,21.960 22.399 C 21.570 22.134,21.203 21.852,21.145 21.773 C 20.955 21.511,19.268 21.103,18.333 21.093 C 17.472 21.084,17.414 21.057,17.366 20.647 C 17.247 19.620,19.783 18.942,21.308 19.593 M20.220 21.989 C 20.835 22.223,20.779 22.438,20.042 22.675 C 16.142 23.932,18.189 32.547,23.395 36.790 C 23.907 37.207,25.495 37.833,26.039 37.833 C 27.070 37.833,27.298 38.393,26.417 38.761 C 26.096 38.895,25.833 39.078,25.833 39.169 C 25.833 39.435,24.976 39.358,23.957 39.000 C 23.435 38.817,22.939 38.667,22.855 38.667 C 22.687 38.667,22.066 38.166,20.785 37.001 C 19.486 35.819,18.076 33.854,17.317 32.167 C 17.214 31.938,17.033 31.563,16.915 31.333 C 16.798 31.104,16.623 30.654,16.528 30.333 C 16.432 30.012,16.240 29.450,16.101 29.083 C 15.806 28.305,15.739 24.930,16.000 23.989 C 16.507 22.163,18.364 21.283,20.220 21.989 M40.866 23.448 C 41.123 23.694,41.336 23.975,41.339 24.073 C 41.341 24.170,41.528 24.625,41.754 25.083 C 42.476 26.551,42.022 27.812,40.667 28.101 C 40.438 28.150,39.901 28.273,39.474 28.373 C 38.661 28.564,37.345 28.301,36.308 27.739 C 36.064 27.608,35.722 27.500,35.548 27.500 C 34.797 27.500,34.570 27.076,35.141 26.739 C 35.430 26.568,35.667 26.388,35.667 26.339 C 35.667 26.290,35.836 26.049,36.042 25.804 C 36.248 25.558,36.637 25.088,36.906 24.760 C 37.510 24.022,38.613 23.360,39.546 23.176 C 39.933 23.099,40.283 23.028,40.324 23.018 C 40.365 23.008,40.609 23.202,40.866 23.448 M15.417 26.333 C 15.417 26.627,14.544 26.778,14.294 26.528 C 14.014 26.247,14.338 25.979,14.891 26.032 C 15.224 26.065,15.417 26.175,15.417 26.333 M15.250 28.595 C 15.250 28.909,15.155 29.097,14.980 29.131 C 14.644 29.195,14.439 28.524,14.699 28.211 C 14.982 27.870,15.250 28.057,15.250 28.595 M15.916 30.665 C 16.102 31.249,15.713 31.516,15.173 31.174 C 14.965 31.043,14.975 30.971,15.241 30.677 C 15.630 30.247,15.783 30.244,15.916 30.665 M24.606 30.963 C 24.562 31.034,24.651 31.257,24.805 31.459 C 25.177 31.947,25.630 31.720,25.345 31.188 C 25.156 30.836,24.760 30.715,24.606 30.963 M27.447 30.942 C 27.126 31.263,27.469 33.000,27.853 33.000 C 27.989 33.000,28.018 32.720,27.950 32.060 C 27.854 31.131,27.669 30.720,27.447 30.942 M16.677 32.686 C 16.956 33.208,16.467 33.705,16.067 33.305 C 15.791 33.029,15.981 32.333,16.333 32.333 C 16.419 32.333,16.573 32.492,16.677 32.686 M17.973 34.828 C 18.041 35.295,17.710 35.535,17.301 35.316 C 16.921 35.113,16.918 34.849,17.292 34.566 C 17.679 34.272,17.904 34.359,17.973 34.828 M19.333 36.667 C 19.333 37.206,19.156 37.383,18.765 37.233 C 18.411 37.097,18.427 36.391,18.788 36.189 C 19.183 35.968,19.333 36.100,19.333 36.667 M20.848 38.101 C 21.061 38.358,20.720 38.833,20.322 38.833 C 20.011 38.833,19.795 38.330,20.000 38.083 C 20.269 37.760,20.570 37.766,20.848 38.101 M22.748 39.837 C 22.614 40.053,22.048 40.046,21.912 39.826 C 21.853 39.730,21.934 39.455,22.091 39.215 L 22.378 38.777 22.613 39.226 C 22.742 39.473,22.803 39.748,22.748 39.837 " stroke="none" fill="#fbfbfb" fill-rule="evenodd"></path><path id="path2" d="M0.000 15.000 L 0.000 30.000 3.135 30.000 C 6.820 30.000,6.756 30.026,6.896 28.500 C 7.175 25.451,8.557 21.356,9.767 19.987 C 9.895 19.842,10.000 19.661,10.000 19.584 C 10.000 19.507,10.111 19.326,10.248 19.181 C 10.384 19.035,10.913 18.411,11.423 17.794 C 11.933 17.176,12.778 16.332,13.300 15.917 C 13.823 15.503,14.360 15.071,14.494 14.958 C 14.867 14.645,15.701 14.104,16.167 13.875 C 16.396 13.762,16.696 13.599,16.833 13.513 C 17.611 13.028,20.275 12.045,21.167 11.915 C 21.579 11.855,22.287 11.699,22.739 11.569 C 23.845 11.252,27.497 11.253,28.595 11.572 C 29.047 11.703,29.792 11.861,30.250 11.923 C 30.708 11.985,31.249 12.141,31.452 12.268 C 31.655 12.396,31.911 12.500,32.020 12.500 C 32.492 12.500,34.675 13.605,36.183 14.608 C 38.124 15.898,40.930 18.755,41.507 20.027 C 41.604 20.241,41.866 20.717,42.088 21.083 C 42.310 21.450,42.569 21.938,42.664 22.167 C 42.758 22.396,42.938 22.771,43.063 23.000 C 43.188 23.229,43.344 23.717,43.410 24.083 C 43.476 24.450,43.603 24.839,43.693 24.948 C 43.783 25.056,44.000 26.144,44.177 27.364 C 44.412 28.993,44.573 29.639,44.780 29.792 C 45.193 30.095,68.147 30.095,68.538 29.792 C 68.870 29.533,68.687 24.909,68.266 22.946 C 68.125 22.288,67.941 21.375,67.856 20.917 C 67.617 19.617,67.151 17.800,66.916 17.250 C 66.798 16.975,66.647 16.487,66.580 16.167 C 66.512 15.846,66.354 15.435,66.229 15.255 C 66.103 15.074,66.000 14.808,66.000 14.665 C 66.000 14.521,65.850 14.110,65.667 13.750 C 65.483 13.390,65.333 13.030,65.333 12.950 C 65.333 12.777,63.802 9.702,63.242 8.750 C 63.026 8.383,62.794 7.971,62.728 7.833 C 62.306 6.968,60.587 4.553,59.008 2.608 C 57.995 1.361,57.167 0.264,57.167 0.170 C 57.167 0.055,47.927 0.000,28.583 0.000 L 0.000 0.000 0.000 15.000 M356.000 3.801 C 356.000 6.584,356.056 7.677,356.208 7.880 C 356.399 8.133,357.572 8.164,369.833 8.231 C 383.395 8.306,385.747 8.397,386.870 8.893 C 387.210 9.043,387.686 9.167,387.927 9.167 C 388.167 9.167,388.555 9.317,388.788 9.500 C 389.021 9.683,389.358 9.833,389.538 9.833 C 389.717 9.833,390.055 9.983,390.288 10.167 C 390.521 10.350,390.842 10.500,391.002 10.500 C 391.162 10.500,391.383 10.610,391.495 10.744 C 391.606 10.877,391.859 11.038,392.057 11.101 C 392.863 11.356,396.612 14.806,396.882 15.542 C 396.941 15.702,397.061 15.833,397.149 15.833 C 397.236 15.833,397.394 16.096,397.500 16.417 C 397.606 16.737,397.759 17.000,397.840 17.000 C 397.920 17.000,398.077 17.301,398.187 17.669 C 398.297 18.036,398.488 18.421,398.610 18.522 C 398.733 18.624,398.833 18.944,398.833 19.233 C 398.833 19.523,398.965 19.945,399.125 20.171 C 399.611 20.858,399.652 25.851,399.180 26.887 C 398.990 27.306,398.833 27.829,398.833 28.049 C 398.833 28.269,398.683 28.622,398.500 28.833 C 398.317 29.045,398.167 29.345,398.167 29.500 C 398.167 29.655,398.017 29.955,397.833 30.167 C 397.650 30.378,397.500 30.640,397.500 30.750 C 397.500 30.859,397.350 31.084,397.167 31.250 C 396.983 31.416,396.833 31.627,396.833 31.719 C 396.833 31.885,394.200 34.481,393.464 35.040 C 392.783 35.558,391.822 36.167,391.685 36.167 C 391.612 36.167,391.416 36.317,391.250 36.500 C 391.084 36.683,390.829 36.834,390.683 36.834 C 390.536 36.835,390.192 36.985,389.917 37.167 C 389.642 37.349,389.266 37.498,389.081 37.499 C 388.896 37.500,388.465 37.650,388.123 37.833 C 387.781 38.017,387.274 38.167,386.995 38.167 C 386.717 38.167,386.210 38.298,385.870 38.458 C 385.299 38.727,384.104 38.757,370.667 38.833 L 356.083 38.917 356.083 44.333 L 356.083 49.750 370.333 49.750 C 383.490 49.750,384.645 49.728,385.381 49.458 C 385.819 49.298,386.494 49.165,386.881 49.163 C 387.267 49.161,387.910 49.011,388.310 48.830 C 388.709 48.648,389.311 48.500,389.646 48.500 C 389.981 48.500,390.535 48.350,390.877 48.167 C 391.219 47.983,391.690 47.833,391.925 47.833 C 392.159 47.833,392.647 47.683,393.009 47.500 C 393.371 47.317,393.963 47.017,394.325 46.833 C 394.687 46.650,395.094 46.500,395.229 46.500 C 395.365 46.500,395.583 46.393,395.714 46.262 C 395.844 46.132,396.206 45.907,396.517 45.763 C 396.829 45.619,397.308 45.350,397.583 45.167 C 397.858 44.983,398.314 44.725,398.597 44.593 C 398.879 44.461,399.207 44.236,399.325 44.093 C 399.444 43.950,399.644 43.833,399.770 43.833 C 399.964 43.833,400.000 40.663,400.000 23.520 L 400.000 3.207 399.458 2.993 C 399.160 2.875,398.791 2.671,398.637 2.540 C 398.319 2.271,397.776 1.969,396.042 1.096 C 395.370 0.757,394.833 0.379,394.833 0.244 C 394.833 0.031,392.343 0.000,375.417 0.000 L 356.000 0.000 356.000 3.801 M18.596 19.930 C 17.508 20.328,17.662 20.659,18.937 20.664 C 20.880 20.671,23.633 22.873,25.929 26.257 C 26.865 27.637,27.103 28.346,26.723 28.623 C 26.253 28.967,26.013 28.770,24.750 26.997 C 23.750 25.594,21.749 24.167,20.782 24.167 C 19.997 24.167,19.852 24.432,20.574 24.550 C 21.191 24.650,21.231 24.679,22.842 26.211 C 24.640 27.920,25.430 29.377,24.847 29.905 C 24.398 30.311,24.053 30.222,23.269 29.500 C 21.917 28.253,21.093 28.765,21.397 30.663 C 21.638 32.173,22.958 33.196,23.882 32.591 C 25.143 31.765,26.618 34.058,25.612 35.279 C 25.070 35.936,24.936 36.342,25.300 36.226 C 26.199 35.939,26.475 35.770,26.641 35.405 C 27.094 34.413,28.667 35.378,28.667 36.649 C 28.667 37.813,27.321 39.770,26.296 40.095 C 25.713 40.280,26.198 40.500,27.188 40.500 C 29.608 40.500,31.436 37.695,30.871 34.851 C 30.769 34.337,30.637 33.542,30.579 33.083 C 30.520 32.625,30.329 31.818,30.153 31.291 C 29.620 29.691,29.873 29.234,31.750 28.403 C 31.998 28.294,31.829 28.245,31.083 28.212 C 29.264 28.131,29.060 28.054,28.508 27.236 C 28.228 26.822,28.000 26.439,28.000 26.384 C 28.000 26.151,26.785 24.484,25.726 23.265 C 23.382 20.564,20.519 19.225,18.596 19.930 M18.074 22.142 C 16.471 22.648,15.421 26.709,16.394 28.633 C 16.520 28.881,16.677 29.383,16.743 29.750 C 16.810 30.117,16.962 30.604,17.083 30.833 C 17.203 31.063,17.515 31.700,17.775 32.250 C 19.306 35.484,22.275 38.371,24.320 38.613 C 25.855 38.795,27.095 38.319,25.625 38.112 C 23.847 37.862,20.921 35.427,19.784 33.250 C 18.985 31.721,18.500 30.650,18.500 30.415 C 18.500 30.269,18.385 29.927,18.243 29.654 C 17.107 27.457,17.861 22.959,19.431 22.565 C 19.985 22.426,19.935 22.229,19.313 22.104 C 18.718 21.985,18.553 21.990,18.074 22.142 M39.583 23.499 C 38.619 23.752,37.743 24.308,37.177 25.026 C 36.526 25.853,36.324 26.095,35.827 26.639 C 35.632 26.853,35.497 27.043,35.528 27.062 C 37.765 28.434,41.833 28.125,41.833 26.582 C 41.833 25.983,40.818 23.727,40.429 23.461 C 40.227 23.323,40.259 23.321,39.583 23.499 M25.677 30.843 C 26.246 31.413,26.059 32.071,25.311 32.134 C 24.577 32.195,23.776 31.220,24.171 30.745 C 24.465 30.391,25.277 30.444,25.677 30.843 M28.004 30.833 C 28.859 32.595,28.732 33.795,27.741 33.309 C 27.096 32.993,26.515 31.044,26.965 30.702 C 27.316 30.435,27.843 30.502,28.004 30.833 " stroke="none" fill="#b41d35" fill-rule="evenodd"></path><path id="path3" d="M57.180 0.129 C 57.173 0.245,58.003 1.370,59.025 2.629 C 60.047 3.887,61.258 5.499,61.716 6.212 C 62.174 6.924,62.577 7.478,62.612 7.443 C 62.696 7.360,60.474 4.034,59.972 3.491 C 59.758 3.260,59.460 2.882,59.309 2.651 C 59.158 2.421,58.664 1.823,58.210 1.324 C 57.756 0.825,57.341 0.304,57.289 0.167 C 57.227 0.007,57.188 -0.007,57.180 0.129 M212.000 0.131 C 212.000 0.203,212.150 0.688,212.333 1.210 C 212.517 1.732,212.669 2.254,212.672 2.371 C 212.675 2.488,212.823 2.883,213.000 3.250 C 213.177 3.617,213.325 4.009,213.328 4.122 C 213.337 4.453,214.834 7.507,215.442 8.434 C 215.749 8.902,216.000 9.329,216.000 9.384 C 216.000 9.478,216.173 9.734,217.597 11.750 C 218.217 12.627,222.903 17.333,223.156 17.333 C 223.237 17.333,223.666 17.616,224.110 17.961 C 224.554 18.307,225.104 18.683,225.333 18.796 C 225.563 18.910,225.975 19.149,226.250 19.326 C 226.857 19.718,230.158 21.348,231.083 21.712 C 235.988 23.647,243.439 24.203,248.156 22.986 C 248.838 22.811,249.522 22.667,249.677 22.667 C 250.647 22.667,254.915 20.867,257.417 19.403 C 257.783 19.189,258.321 18.879,258.611 18.715 C 262.961 16.258,267.679 10.508,270.345 4.417 C 270.762 3.464,271.654 0.562,271.664 0.125 C 271.665 0.056,269.023 0.001,265.792 0.003 L 259.917 0.006 259.183 1.544 C 258.779 2.391,258.214 3.383,257.927 3.750 C 257.640 4.117,257.278 4.617,257.123 4.863 C 255.037 8.169,249.388 11.495,244.833 12.099 C 241.928 12.484,237.548 12.211,236.305 11.568 C 236.054 11.439,235.751 11.333,235.631 11.333 C 235.510 11.333,235.132 11.183,234.790 11.000 C 234.448 10.817,234.089 10.667,233.993 10.667 C 232.415 10.667,226.676 5.559,225.286 2.917 C 224.608 1.629,224.000 0.331,224.000 0.174 C 224.000 0.056,222.049 0.000,218.000 0.000 C 214.700 0.000,212.000 0.059,212.000 0.131 M355.367 4.075 C 355.404 7.141,355.470 8.204,355.633 8.367 C 355.806 8.540,358.767 8.601,370.300 8.670 C 382.968 8.746,384.832 8.790,385.417 9.021 C 385.783 9.167,386.458 9.340,386.917 9.406 C 387.375 9.472,387.916 9.633,388.119 9.763 C 388.322 9.893,388.585 10.000,388.704 10.000 C 389.030 10.000,391.657 11.375,392.681 12.082 C 394.407 13.273,397.333 16.435,397.333 17.109 C 397.333 17.196,397.417 17.351,397.520 17.453 C 397.782 17.715,398.479 19.467,398.599 20.167 C 398.654 20.487,398.805 21.120,398.933 21.572 C 399.493 23.543,398.841 27.590,397.654 29.500 C 397.569 29.637,397.424 29.924,397.333 30.136 C 397.175 30.502,396.458 31.528,396.072 31.940 C 395.974 32.044,395.711 32.344,395.488 32.607 C 394.566 33.688,392.162 35.499,390.641 36.258 C 388.526 37.313,387.679 37.585,384.917 38.096 L 382.750 38.497 369.412 38.498 C 357.612 38.500,356.031 38.530,355.704 38.759 C 355.232 39.090,355.110 49.298,355.570 49.926 C 356.048 50.581,384.750 50.429,386.367 49.763 C 386.669 49.639,387.329 49.482,387.833 49.414 C 388.337 49.347,388.938 49.217,389.167 49.125 C 389.396 49.033,389.996 48.862,390.500 48.744 C 391.304 48.555,391.901 48.349,394.272 47.440 C 394.560 47.330,394.897 47.154,395.023 47.050 C 395.149 46.946,395.458 46.808,395.711 46.745 C 395.963 46.682,396.212 46.562,396.263 46.479 C 396.314 46.396,396.595 46.216,396.886 46.080 C 397.178 45.943,397.717 45.646,398.083 45.419 C 398.450 45.193,399.030 44.875,399.373 44.712 C 399.741 44.538,399.997 44.297,399.998 44.125 C 400.000 43.763,399.614 43.745,399.325 44.093 C 399.207 44.236,398.879 44.461,398.597 44.593 C 398.314 44.725,397.858 44.983,397.583 45.167 C 397.308 45.350,396.829 45.619,396.517 45.763 C 396.206 45.907,395.844 46.132,395.714 46.262 C 395.583 46.393,395.365 46.500,395.229 46.500 C 395.094 46.500,394.687 46.650,394.325 46.833 C 393.963 47.017,393.371 47.317,393.009 47.500 C 392.647 47.683,392.159 47.833,391.925 47.833 C 391.690 47.833,391.219 47.983,390.877 48.167 C 390.535 48.350,389.981 48.500,389.646 48.500 C 389.311 48.500,388.709 48.648,388.310 48.830 C 387.910 49.011,387.267 49.161,386.881 49.163 C 386.494 49.165,385.819 49.298,385.381 49.458 C 384.645 49.728,383.490 49.750,370.333 49.750 L 356.083 49.750 356.083 44.333 L 356.083 38.917 370.667 38.833 C 384.104 38.757,385.299 38.727,385.870 38.458 C 386.210 38.298,386.717 38.167,386.995 38.167 C 387.274 38.167,387.781 38.017,388.123 37.833 C 388.465 37.650,388.896 37.500,389.081 37.499 C 389.266 37.498,389.642 37.349,389.917 37.167 C 390.192 36.985,390.536 36.835,390.683 36.834 C 390.829 36.834,391.084 36.683,391.250 36.500 C 391.416 36.317,391.612 36.167,391.685 36.167 C 391.822 36.167,392.783 35.558,393.464 35.040 C 394.200 34.481,396.833 31.885,396.833 31.719 C 396.833 31.627,396.983 31.416,397.167 31.250 C 397.350 31.084,397.500 30.859,397.500 30.750 C 397.500 30.640,397.650 30.378,397.833 30.167 C 398.017 29.955,398.167 29.655,398.167 29.500 C 398.167 29.345,398.317 29.045,398.500 28.833 C 398.683 28.622,398.833 28.269,398.833 28.049 C 398.833 27.829,398.990 27.306,399.180 26.887 C 399.652 25.851,399.611 20.858,399.125 20.171 C 398.965 19.945,398.833 19.523,398.833 19.233 C 398.833 18.944,398.733 18.624,398.610 18.522 C 398.488 18.421,398.297 18.036,398.187 17.669 C 398.077 17.301,397.920 17.000,397.840 17.000 C 397.759 17.000,397.606 16.737,397.500 16.417 C 397.394 16.096,397.236 15.833,397.149 15.833 C 397.061 15.833,396.941 15.702,396.882 15.542 C 396.612 14.806,392.863 11.356,392.057 11.101 C 391.859 11.038,391.606 10.877,391.495 10.744 C 391.383 10.610,391.162 10.500,391.002 10.500 C 390.842 10.500,390.521 10.350,390.288 10.167 C 390.055 9.983,389.717 9.833,389.538 9.833 C 389.358 9.833,389.021 9.683,388.788 9.500 C 388.555 9.317,388.167 9.167,387.927 9.167 C 387.686 9.167,387.210 9.043,386.870 8.893 C 385.747 8.397,383.395 8.306,369.833 8.231 C 357.572 8.164,356.399 8.133,356.208 7.880 C 356.056 7.677,356.000 6.584,356.000 3.801 C 356.000 0.080,355.993 0.000,355.658 0.000 C 355.322 0.000,355.318 0.062,355.367 4.075 M394.833 0.244 C 394.833 0.379,395.370 0.757,396.042 1.096 C 397.758 1.959,398.317 2.270,398.637 2.536 C 398.893 2.749,399.745 3.167,399.925 3.167 C 400.604 3.167,399.532 2.412,396.776 0.951 C 396.120 0.603,395.558 0.247,395.528 0.159 C 395.438 -0.097,394.833 -0.023,394.833 0.244 M62.667 7.788 C 62.667 7.894,62.749 8.031,62.850 8.094 C 62.951 8.156,63.142 8.442,63.275 8.729 C 63.876 10.030,65.326 12.731,65.329 12.556 C 65.332 12.449,64.838 11.399,64.233 10.222 C 63.171 8.158,62.667 7.374,62.667 7.788 M22.667 11.592 C 22.254 11.722,21.729 11.840,21.500 11.854 C 21.132 11.876,21.125 11.887,21.440 11.949 C 21.637 11.987,22.247 11.902,22.798 11.759 C 24.097 11.422,27.261 11.417,28.500 11.750 C 29.004 11.885,29.604 11.987,29.833 11.975 L 30.250 11.955 29.833 11.882 C 29.604 11.843,29.047 11.703,28.595 11.572 C 27.500 11.254,23.697 11.267,22.667 11.592 M19.583 12.342 C 19.217 12.516,19.018 12.660,19.141 12.662 C 19.265 12.665,19.603 12.559,19.891 12.428 C 20.180 12.297,20.567 12.155,20.750 12.114 C 21.012 12.055,20.994 12.037,20.667 12.033 C 20.438 12.030,19.950 12.169,19.583 12.342 M30.917 12.267 C 31.283 12.405,31.797 12.586,32.058 12.669 C 32.591 12.838,33.952 13.442,34.333 13.679 C 34.471 13.764,34.737 13.901,34.925 13.984 C 35.774 14.355,38.136 16.209,39.083 17.248 C 40.669 18.988,41.536 20.255,42.448 22.172 C 42.818 22.948,43.162 23.696,43.214 23.833 C 43.285 24.024,43.310 24.011,43.320 23.776 C 43.327 23.607,43.221 23.269,43.084 23.026 C 42.948 22.782,42.758 22.396,42.664 22.167 C 42.569 21.938,42.310 21.450,42.088 21.083 C 41.866 20.717,41.604 20.241,41.507 20.027 C 40.930 18.755,38.124 15.898,36.183 14.608 C 34.640 13.582,32.503 12.506,31.984 12.495 C 31.855 12.492,31.604 12.379,31.426 12.245 C 31.249 12.110,30.911 12.003,30.676 12.007 C 30.318 12.013,30.357 12.055,30.917 12.267 M18.000 12.935 C 17.771 13.065,17.396 13.251,17.167 13.348 C 16.445 13.652,14.988 14.527,14.500 14.951 C 14.362 15.070,13.823 15.506,13.300 15.919 C 12.778 16.333,11.933 17.176,11.423 17.794 C 10.913 18.411,10.371 19.048,10.219 19.208 C 10.067 19.368,9.983 19.538,10.031 19.587 C 10.079 19.635,10.609 19.072,11.208 18.335 C 12.754 16.435,16.748 13.333,17.650 13.333 C 17.746 13.333,18.071 13.184,18.371 13.001 C 18.985 12.626,18.647 12.566,18.000 12.935 M65.340 12.923 C 65.336 13.018,65.483 13.390,65.667 13.750 C 65.850 14.110,65.997 14.294,65.993 14.160 C 65.985 13.872,65.351 12.670,65.340 12.923 M66.007 14.671 C 66.003 14.811,66.103 15.074,66.230 15.255 C 66.356 15.435,66.498 15.733,66.544 15.917 L 66.628 16.250 66.640 15.917 C 66.647 15.733,66.509 15.321,66.333 15.000 C 66.158 14.679,66.011 14.531,66.007 14.671 M66.670 16.475 C 66.668 16.598,66.774 16.936,66.905 17.225 C 67.037 17.514,67.178 17.900,67.219 18.083 C 67.290 18.396,67.296 18.395,67.314 18.060 C 67.325 17.864,67.185 17.376,67.004 16.977 C 66.822 16.577,66.672 16.351,66.670 16.475 M67.409 18.917 C 67.606 19.972,67.977 21.088,67.989 20.660 C 67.995 20.428,67.846 19.828,67.658 19.327 C 67.469 18.826,67.357 18.642,67.409 18.917 M18.033 19.779 C 16.914 20.453,17.058 21.079,18.333 21.093 C 19.268 21.103,20.955 21.511,21.145 21.773 C 21.203 21.852,21.570 22.134,21.960 22.399 C 22.351 22.664,23.116 23.377,23.660 23.982 C 25.158 25.650,25.292 25.829,25.793 26.833 C 25.953 27.154,26.184 27.495,26.306 27.592 C 26.434 27.692,26.501 27.975,26.463 28.258 L 26.398 28.750 26.195 28.333 C 25.096 26.079,22.099 23.704,20.572 23.876 C 19.361 24.012,18.943 24.833,20.085 24.833 C 20.583 24.833,22.259 25.964,23.087 26.859 C 25.122 29.059,25.460 31.099,23.483 29.250 C 22.440 28.275,21.674 28.206,21.165 29.042 C 20.129 30.740,22.380 34.101,23.834 33.026 C 25.488 31.803,26.317 34.197,24.718 35.580 C 23.925 36.265,24.033 36.667,25.011 36.667 C 25.682 36.667,26.335 36.332,27.039 35.627 C 27.461 35.206,27.760 35.262,28.173 35.842 L 28.534 36.350 28.151 37.375 C 27.731 38.497,27.305 38.966,26.167 39.555 C 24.711 40.309,25.462 40.928,27.681 40.804 C 30.203 40.662,31.998 36.800,31.023 33.614 C 30.933 33.322,30.810 32.708,30.749 32.250 C 30.688 31.792,30.539 31.192,30.419 30.917 C 29.867 29.656,30.231 29.125,31.958 28.673 C 32.348 28.571,32.667 28.416,32.667 28.329 C 32.667 28.242,33.004 28.086,33.417 27.983 C 33.829 27.879,34.167 27.729,34.167 27.650 C 34.167 27.311,33.233 27.309,32.006 27.645 C 29.990 28.197,28.667 27.875,28.667 26.831 C 28.667 26.751,28.198 25.989,27.625 25.136 C 25.246 21.595,22.151 19.324,19.725 19.340 C 18.979 19.345,18.582 19.448,18.033 19.779 M21.149 20.002 C 23.304 20.657,28.000 25.032,28.000 26.384 C 28.000 26.439,28.228 26.822,28.508 27.236 C 29.060 28.054,29.264 28.131,31.083 28.212 C 31.829 28.245,31.998 28.294,31.750 28.403 C 29.873 29.234,29.620 29.691,30.153 31.291 C 30.329 31.818,30.520 32.625,30.579 33.083 C 30.637 33.542,30.769 34.337,30.871 34.851 C 31.436 37.695,29.608 40.500,27.188 40.500 C 26.198 40.500,25.713 40.280,26.296 40.095 C 27.321 39.770,28.667 37.813,28.667 36.649 C 28.667 35.378,27.094 34.413,26.641 35.405 C 26.475 35.770,26.199 35.939,25.300 36.226 C 24.936 36.342,25.070 35.936,25.612 35.279 C 26.618 34.058,25.143 31.765,23.882 32.591 C 22.958 33.196,21.638 32.173,21.397 30.663 C 21.093 28.765,21.917 28.253,23.269 29.500 C 24.053 30.222,24.398 30.311,24.847 29.905 C 25.430 29.377,24.640 27.920,22.842 26.211 C 21.231 24.679,21.191 24.650,20.574 24.550 C 19.852 24.432,19.997 24.167,20.782 24.167 C 21.749 24.167,23.750 25.594,24.750 26.997 C 26.013 28.770,26.253 28.967,26.723 28.623 C 27.103 28.346,26.865 27.637,25.929 26.257 C 23.633 22.873,20.880 20.671,18.937 20.664 C 17.662 20.659,17.508 20.328,18.596 19.930 C 19.490 19.602,19.871 19.613,21.149 20.002 M9.706 20.038 C 9.412 20.396,8.000 23.298,8.006 23.531 C 8.009 23.651,8.202 23.337,8.433 22.833 C 8.665 22.329,8.925 21.804,9.011 21.667 C 9.097 21.529,9.248 21.229,9.345 21.000 C 9.443 20.771,9.643 20.452,9.788 20.291 C 9.934 20.130,10.015 19.959,9.967 19.912 C 9.920 19.864,9.802 19.921,9.706 20.038 M68.020 21.583 C 68.010 21.858,68.087 22.383,68.191 22.750 C 68.294 23.117,68.434 23.829,68.501 24.333 L 68.623 25.250 68.645 24.511 C 68.657 24.104,68.558 23.317,68.425 22.761 C 68.292 22.205,68.151 21.600,68.111 21.417 C 68.063 21.197,68.032 21.254,68.020 21.583 M17.886 21.842 C 16.147 22.373,15.126 26.513,16.101 29.083 C 16.240 29.450,16.432 30.012,16.528 30.333 C 16.623 30.654,16.798 31.104,16.915 31.333 C 17.033 31.563,17.214 31.938,17.317 32.167 C 18.076 33.854,19.486 35.819,20.785 37.001 C 22.066 38.166,22.687 38.667,22.855 38.667 C 22.939 38.667,23.435 38.817,23.957 39.000 C 24.976 39.358,25.833 39.435,25.833 39.169 C 25.833 39.078,26.096 38.895,26.417 38.761 C 27.298 38.393,27.070 37.833,26.039 37.833 C 25.495 37.833,23.907 37.207,23.395 36.790 C 18.189 32.547,16.142 23.932,20.042 22.675 C 20.780 22.438,20.822 22.291,20.229 22.021 C 19.605 21.736,18.506 21.652,17.886 21.842 M19.313 22.104 C 19.935 22.229,19.985 22.426,19.431 22.565 C 17.861 22.959,17.107 27.457,18.243 29.654 C 18.385 29.927,18.500 30.269,18.500 30.415 C 18.500 30.650,18.985 31.721,19.784 33.250 C 20.921 35.427,23.847 37.862,25.625 38.112 C 27.095 38.319,25.855 38.795,24.320 38.613 C 22.275 38.371,19.306 35.484,17.775 32.250 C 17.515 31.700,17.203 31.063,17.083 30.833 C 16.962 30.604,16.810 30.117,16.743 29.750 C 16.677 29.383,16.520 28.881,16.394 28.633 C 15.986 27.827,16.085 24.467,16.542 23.624 C 17.239 22.336,18.104 21.862,19.313 22.104 M39.167 23.331 C 37.901 23.744,37.380 24.175,36.250 25.741 C 35.814 26.346,35.543 26.626,35.218 26.808 C 34.850 27.014,35.068 27.286,35.710 27.423 C 36.007 27.487,36.331 27.603,36.430 27.682 C 36.896 28.056,38.878 28.522,39.310 28.360 C 39.552 28.269,39.996 28.152,40.297 28.101 C 41.859 27.831,42.328 26.726,41.618 24.984 C 40.876 23.161,40.489 22.900,39.167 23.331 M40.429 23.461 C 40.818 23.727,41.833 25.983,41.833 26.582 C 41.833 28.125,37.765 28.434,35.528 27.062 C 35.497 27.043,35.632 26.853,35.827 26.639 C 36.324 26.095,36.526 25.853,37.177 25.026 C 37.743 24.308,38.619 23.752,39.583 23.499 C 40.259 23.321,40.227 23.323,40.429 23.461 M7.625 24.546 C 7.465 24.935,7.336 25.403,7.339 25.585 C 7.343 25.767,7.493 25.506,7.674 25.003 C 8.071 23.899,8.034 23.555,7.625 24.546 M43.346 24.340 C 43.339 24.481,43.481 25.006,43.661 25.506 C 43.865 26.075,43.990 26.270,43.994 26.025 C 43.997 25.810,43.894 25.397,43.765 25.109 C 43.636 24.820,43.492 24.471,43.445 24.333 C 43.371 24.116,43.358 24.117,43.346 24.340 M68.738 27.630 C 68.779 29.368,68.746 29.700,68.518 29.833 C 68.371 29.919,68.325 29.991,68.417 29.992 C 68.974 30.001,69.022 29.744,68.855 27.651 L 68.690 25.583 68.738 27.630 M7.096 26.786 C 7.033 27.225,6.941 28.033,6.891 28.583 C 6.833 29.222,6.701 29.666,6.525 29.811 C 6.329 29.973,6.319 30.018,6.488 29.968 C 6.856 29.858,6.956 29.543,7.174 27.786 C 7.378 26.148,7.311 25.294,7.096 26.786 M14.247 26.172 C 14.065 26.467,14.408 26.699,14.938 26.638 C 15.608 26.561,15.572 26.098,14.891 26.032 C 14.601 26.004,14.312 26.067,14.247 26.172 M44.105 28.083 C 44.203 29.617,44.342 30.000,44.802 30.000 C 45.028 30.000,45.025 29.972,44.780 29.792 C 44.591 29.652,44.416 29.087,44.253 28.083 L 44.009 26.583 44.105 28.083 M14.699 28.211 C 14.439 28.524,14.644 29.195,14.980 29.131 C 15.155 29.097,15.250 28.909,15.250 28.595 C 15.250 28.057,14.982 27.870,14.699 28.211 M15.241 30.677 C 14.975 30.971,14.965 31.043,15.173 31.174 C 15.713 31.516,16.102 31.249,15.916 30.665 C 15.783 30.244,15.630 30.247,15.241 30.677 M24.171 30.745 C 24.007 30.943,24.039 31.107,24.336 31.588 C 24.821 32.373,25.880 32.404,25.968 31.635 C 26.069 30.761,24.714 30.090,24.171 30.745 M26.965 30.702 C 26.515 31.044,27.096 32.993,27.741 33.309 C 28.732 33.795,28.859 32.595,28.004 30.833 C 27.843 30.502,27.316 30.435,26.965 30.702 M25.327 30.989 C 25.597 31.492,25.534 31.833,25.173 31.833 C 24.802 31.833,24.428 31.261,24.565 30.904 C 24.696 30.564,25.125 30.612,25.327 30.989 M27.954 31.875 C 28.107 32.933,27.990 33.390,27.653 33.053 C 27.333 32.733,27.241 30.833,27.546 30.833 C 27.736 30.833,27.844 31.109,27.954 31.875 M15.990 32.686 C 15.710 33.208,16.200 33.705,16.600 33.305 C 16.876 33.029,16.686 32.333,16.333 32.333 C 16.248 32.333,16.093 32.492,15.990 32.686 M17.292 34.566 C 16.918 34.849,16.921 35.113,17.301 35.316 C 17.710 35.535,18.041 35.295,17.973 34.828 C 17.904 34.359,17.679 34.272,17.292 34.566 M18.788 36.189 C 18.427 36.391,18.411 37.097,18.765 37.233 C 19.156 37.383,19.333 37.206,19.333 36.667 C 19.333 36.100,19.183 35.968,18.788 36.189 M20.000 38.083 C 19.795 38.330,20.011 38.833,20.322 38.833 C 20.720 38.833,21.061 38.358,20.848 38.101 C 20.570 37.766,20.269 37.760,20.000 38.083 M22.091 39.215 C 21.771 39.704,21.862 40.000,22.333 40.000 C 22.787 40.000,22.882 39.738,22.613 39.226 L 22.378 38.777 22.091 39.215 M282.600 106.884 C 282.245 107.144,282.623 110.393,283.085 111.053 C 283.222 111.248,283.333 111.515,283.333 111.645 C 283.333 111.869,284.102 113.545,284.374 113.915 C 286.294 116.528,289.952 119.330,291.447 119.333 C 292.992 119.336,293.087 120.273,291.583 120.681 C 286.534 122.052,282.362 127.478,282.336 132.708 L 282.333 133.333 295.500 133.333 L 308.667 133.333 308.663 132.208 C 308.653 129.445,307.109 126.116,304.767 123.808 C 303.746 122.802,301.716 121.333,301.347 121.333 C 301.230 121.333,300.936 121.218,300.692 121.077 C 300.449 120.936,299.875 120.730,299.417 120.619 C 298.062 120.290,298.171 119.346,299.564 119.336 C 301.207 119.324,305.304 116.155,306.789 113.749 C 308.262 111.362,309.249 107.093,308.403 106.768 C 307.820 106.544,282.911 106.656,282.600 106.884 " stroke="none" fill="#fcb454" fill-rule="evenodd"></path><path id="path4" d="M57.346 0.188 C 57.339 0.337,57.458 0.562,57.611 0.688 C 57.763 0.814,58.255 1.367,58.704 1.917 C 59.152 2.467,59.734 3.179,59.997 3.500 C 60.469 4.076,62.667 7.307,62.667 7.425 C 62.667 7.458,62.854 7.761,63.083 8.099 C 63.313 8.437,63.500 8.638,63.500 8.546 C 63.500 8.454,63.350 8.188,63.167 7.955 C 62.983 7.721,62.833 7.472,62.833 7.399 C 62.833 7.252,62.031 6.037,61.708 5.696 C 61.594 5.575,61.500 5.410,61.500 5.328 C 61.500 5.166,58.398 1.234,57.873 0.730 C 57.693 0.558,57.504 0.304,57.453 0.167 C 57.375 -0.043,57.358 -0.039,57.346 0.188 M64.398 10.616 C 64.891 11.606,65.453 12.810,65.647 13.292 C 65.841 13.773,66.147 14.523,66.327 14.958 C 66.506 15.394,66.685 15.900,66.724 16.083 C 66.780 16.347,66.799 16.330,66.814 15.998 C 66.825 15.767,66.683 15.299,66.500 14.956 C 66.317 14.614,66.167 14.249,66.167 14.144 C 66.167 13.936,65.966 13.485,64.681 10.799 C 64.211 9.818,63.753 8.970,63.664 8.915 C 63.575 8.860,63.905 9.625,64.398 10.616 M22.833 11.764 L 22.083 11.995 22.833 11.899 C 23.246 11.846,23.958 11.745,24.417 11.675 L 25.250 11.547 24.417 11.540 C 23.958 11.536,23.246 11.637,22.833 11.764 M26.833 11.668 C 27.337 11.734,28.186 11.878,28.718 11.987 C 29.251 12.097,29.851 12.155,30.052 12.116 C 30.328 12.063,30.295 12.039,29.917 12.021 C 29.642 12.007,29.004 11.885,28.500 11.750 C 27.996 11.615,27.208 11.514,26.750 11.526 L 25.917 11.549 26.833 11.668 M21.208 12.115 C 21.369 12.157,21.631 12.157,21.792 12.115 C 21.952 12.073,21.821 12.039,21.500 12.039 C 21.179 12.039,21.048 12.073,21.208 12.115 M20.091 12.321 C 20.039 12.405,19.753 12.527,19.456 12.591 C 18.802 12.732,17.936 13.158,18.057 13.279 C 18.105 13.328,18.317 13.247,18.526 13.100 C 18.736 12.953,19.022 12.831,19.162 12.829 C 19.537 12.823,20.799 12.196,20.468 12.180 C 20.313 12.173,20.144 12.236,20.091 12.321 M31.083 12.484 C 31.450 12.670,31.900 12.821,32.083 12.820 C 32.273 12.819,32.130 12.710,31.750 12.565 C 30.678 12.157,30.363 12.119,31.083 12.484 M32.500 12.912 C 32.500 13.031,33.452 13.500,33.694 13.500 C 33.809 13.500,33.610 13.350,33.250 13.167 C 32.546 12.808,32.500 12.792,32.500 12.912 M16.250 14.035 C 13.513 15.649,10.410 18.787,9.416 20.947 C 9.282 21.239,9.096 21.524,9.003 21.582 C 8.909 21.639,8.833 21.761,8.833 21.853 C 8.833 22.320,9.266 21.699,10.068 20.083 C 10.667 18.876,14.629 14.856,15.237 14.838 C 15.321 14.835,15.509 14.729,15.654 14.602 C 15.798 14.475,16.358 14.138,16.898 13.852 C 17.438 13.567,17.776 13.336,17.648 13.340 C 17.521 13.344,16.892 13.656,16.250 14.035 M34.161 13.744 C 34.272 13.877,34.514 14.035,34.699 14.094 C 35.002 14.190,35.995 14.789,36.417 15.130 C 36.793 15.435,37.051 15.550,36.935 15.363 C 36.782 15.116,35.098 14.000,34.878 14.000 C 34.784 14.000,34.614 13.887,34.500 13.750 C 34.386 13.612,34.218 13.500,34.126 13.500 C 34.031 13.500,34.046 13.605,34.161 13.744 M37.167 15.539 C 37.167 15.634,40.350 18.833,40.444 18.833 C 40.503 18.833,39.888 18.120,39.083 17.256 C 38.572 16.706,37.167 15.447,37.167 15.539 M66.845 16.583 C 66.845 16.675,66.952 16.938,67.083 17.167 C 67.214 17.396,67.330 17.808,67.341 18.083 C 67.351 18.358,67.399 18.486,67.447 18.366 C 67.574 18.048,67.366 17.107,67.087 16.737 C 66.953 16.561,66.844 16.492,66.845 16.583 M67.506 18.773 C 67.503 18.877,67.610 19.214,67.743 19.523 C 67.912 19.910,67.987 19.980,67.988 19.750 C 67.988 19.401,67.516 18.443,67.506 18.773 M41.167 20.122 C 41.167 20.213,41.306 20.467,41.477 20.686 C 41.648 20.904,41.838 21.245,41.900 21.443 C 41.962 21.641,42.114 21.887,42.238 21.990 C 42.370 22.100,42.320 21.881,42.118 21.464 C 41.730 20.662,41.167 19.868,41.167 20.122 M68.039 20.667 C 68.039 20.987,68.073 21.119,68.115 20.958 C 68.157 20.798,68.157 20.535,68.115 20.375 C 68.073 20.215,68.039 20.346,68.039 20.667 M68.187 21.667 C 68.184 21.804,68.286 22.292,68.413 22.750 C 68.595 23.406,68.644 23.477,68.643 23.083 C 68.641 22.581,68.197 21.199,68.187 21.667 M8.510 22.701 C 8.381 23.003,8.246 23.325,8.209 23.417 C 8.172 23.508,8.304 23.341,8.502 23.044 C 8.701 22.748,8.836 22.426,8.804 22.329 C 8.772 22.232,8.640 22.399,8.510 22.701 M42.504 22.475 C 42.499 22.749,43.018 23.871,43.108 23.781 C 43.144 23.745,43.023 23.386,42.840 22.983 C 42.657 22.580,42.506 22.351,42.504 22.475 M7.835 24.458 C 7.485 25.638,7.467 25.793,7.731 25.330 C 7.965 24.920,8.270 23.667,8.136 23.667 C 8.099 23.667,7.964 24.023,7.835 24.458 M68.720 24.667 C 68.720 25.262,68.750 25.506,68.787 25.208 C 68.824 24.910,68.824 24.423,68.787 24.125 C 68.750 23.827,68.720 24.071,68.720 24.667 M43.246 24.603 C 43.292 24.980,43.450 25.505,43.597 25.770 C 43.897 26.309,43.871 26.162,43.398 24.667 L 43.161 23.917 43.246 24.603 M7.190 27.603 C 6.894 30.138,7.275 29.902,3.315 30.005 L -0.083 30.094 3.260 30.130 C 5.725 30.157,6.675 30.112,6.877 29.958 C 7.142 29.757,7.628 26.469,7.466 25.980 C 7.431 25.876,7.307 26.606,7.190 27.603 M42.042 26.417 C 42.044 26.783,42.078 26.914,42.118 26.706 C 42.158 26.499,42.156 26.199,42.115 26.040 C 42.073 25.880,42.040 26.050,42.042 26.417 M43.883 27.167 C 43.883 27.671,43.915 27.877,43.953 27.625 C 43.991 27.373,43.991 26.960,43.953 26.708 C 43.915 26.456,43.883 26.662,43.883 27.167 M68.942 28.042 C 68.992 29.027,69.006 29.851,68.974 29.872 C 68.943 29.894,63.442 29.951,56.750 29.999 L 44.583 30.088 56.593 30.127 C 66.592 30.160,68.656 30.128,68.918 29.936 C 69.261 29.686,69.282 28.954,68.998 27.167 C 68.888 26.476,68.874 26.691,68.942 28.042 M34.768 26.970 C 34.637 27.182,35.262 27.558,35.551 27.441 C 35.662 27.395,35.625 27.354,35.467 27.346 C 35.311 27.339,35.115 27.211,35.031 27.062 C 34.933 26.886,34.840 26.854,34.768 26.970 M41.384 27.595 L 40.917 28.024 41.458 27.647 C 41.756 27.440,42.000 27.247,42.000 27.219 C 42.000 27.087,41.816 27.200,41.384 27.595 M31.833 27.522 C 31.604 27.614,30.916 27.665,30.305 27.636 C 29.430 27.595,29.231 27.628,29.367 27.792 C 29.617 28.092,30.586 28.047,31.833 27.679 C 32.429 27.503,32.767 27.358,32.583 27.357 C 32.400 27.355,32.063 27.430,31.833 27.522 M34.035 27.566 C 34.153 27.694,34.307 27.764,34.378 27.721 C 34.568 27.606,34.350 27.333,34.067 27.333 C 33.864 27.333,33.859 27.375,34.035 27.566 M44.066 28.987 C 44.078 29.631,44.155 29.914,44.333 29.972 C 44.533 30.038,44.544 30.006,44.386 29.816 C 44.278 29.684,44.158 29.241,44.119 28.830 C 44.057 28.178,44.050 28.197,44.066 28.987 M30.609 29.265 C 30.260 29.502,30.010 29.733,30.055 29.777 C 30.140 29.863,31.500 29.052,31.500 28.915 C 31.500 28.740,31.218 28.851,30.609 29.265 M24.426 29.764 C 24.156 29.961,24.147 30.000,24.375 30.000 C 24.525 30.000,24.696 29.920,24.757 29.822 C 24.934 29.536,24.775 29.508,24.426 29.764 M24.597 32.904 C 24.880 33.027,25.274 33.334,25.472 33.586 C 25.671 33.839,25.833 33.968,25.833 33.873 C 25.833 33.605,24.688 32.666,24.369 32.673 C 24.204 32.677,24.301 32.774,24.597 32.904 M31.205 34.833 C 31.205 35.154,31.240 35.285,31.282 35.125 C 31.323 34.965,31.323 34.702,31.282 34.542 C 31.240 34.381,31.205 34.512,31.205 34.833 M27.500 35.452 C 27.637 35.502,27.925 35.740,28.139 35.980 L 28.528 36.417 28.169 35.875 C 27.972 35.577,27.684 35.339,27.530 35.346 C 27.302 35.357,27.296 35.377,27.500 35.452 M31.196 36.111 C 31.180 36.493,31.124 36.943,31.071 37.111 C 30.981 37.398,30.986 37.399,31.164 37.123 C 31.267 36.961,31.324 36.511,31.289 36.123 L 31.225 35.417 31.196 36.111 M31.083 85.172 C 30.167 85.239,29.117 85.409,28.750 85.549 C 28.383 85.690,27.671 85.843,27.167 85.888 C 26.662 85.934,26.025 86.090,25.750 86.235 C 25.475 86.379,25.024 86.498,24.748 86.499 C 24.471 86.500,23.965 86.650,23.623 86.833 C 23.281 87.017,22.869 87.167,22.706 87.167 C 22.544 87.167,22.150 87.307,21.831 87.478 C 21.511 87.649,21.011 87.841,20.720 87.905 C 20.428 87.969,20.100 88.129,19.991 88.261 C 19.882 88.392,19.624 88.500,19.419 88.500 C 19.213 88.500,18.866 88.634,18.647 88.798 C 18.429 88.962,18.063 89.188,17.833 89.299 C 16.954 89.727,15.172 90.762,14.974 90.959 C 14.860 91.073,14.675 91.167,14.562 91.167 C 14.449 91.167,14.226 91.297,14.067 91.457 C 13.907 91.617,13.647 91.823,13.489 91.916 C 12.633 92.415,11.291 93.416,11.217 93.610 C 11.170 93.733,11.063 93.833,10.980 93.833 C 10.576 93.833,6.290 98.076,4.886 99.865 C 3.397 101.763,1.833 104.046,1.833 104.320 C 1.833 104.397,1.724 104.550,1.590 104.661 C 1.456 104.772,1.112 105.344,0.826 105.932 C 0.540 106.519,0.237 107.000,0.153 107.000 C 0.069 107.000,0.000 107.156,0.000 107.347 C 0.000 107.823,0.359 107.676,0.669 107.073 C 3.288 101.979,6.268 98.324,11.500 93.789 C 11.637 93.670,12.088 93.350,12.500 93.078 C 12.912 92.806,13.325 92.503,13.417 92.405 C 13.658 92.146,14.742 91.473,16.083 90.747 C 16.358 90.599,16.883 90.301,17.250 90.086 C 18.587 89.303,21.342 88.000,21.662 88.000 C 21.763 88.000,22.011 87.895,22.214 87.766 C 22.417 87.638,22.846 87.480,23.167 87.417 C 23.488 87.353,23.900 87.206,24.083 87.091 C 24.267 86.976,24.792 86.827,25.250 86.759 C 25.708 86.691,26.315 86.538,26.599 86.420 C 26.883 86.302,27.593 86.150,28.179 86.082 C 28.764 86.014,29.524 85.859,29.868 85.738 C 30.787 85.413,35.416 85.223,35.745 85.496 C 36.085 85.778,36.139 124.295,35.800 124.633 C 35.647 124.786,31.422 124.833,17.800 124.833 C 2.089 124.833,0.000 124.863,0.000 125.083 C 0.000 125.527,35.923 125.455,36.161 125.011 C 36.426 124.516,36.399 85.466,36.133 85.200 C 35.912 84.979,33.870 84.967,31.083 85.172 M382.958 116.292 C 367.774 131.476,365.981 133.333,366.500 133.333 C 366.592 133.333,366.667 133.258,366.667 133.165 C 366.667 133.017,376.514 123.134,394.228 105.506 C 397.403 102.346,400.000 99.740,400.000 99.714 C 400.000 99.329,397.089 102.160,382.958 116.292 M102.491 105.427 C 102.304 105.652,102.653 106.067,105.048 108.469 C 106.572 109.999,110.268 113.717,113.261 116.732 L 118.701 122.213 113.351 127.566 C 110.408 130.510,108.000 133.012,108.000 133.126 C 108.000 133.289,110.355 133.333,119.083 133.333 C 125.370 133.333,130.167 133.270,130.167 133.186 C 130.167 133.106,127.756 130.630,124.809 127.684 L 119.452 122.329 119.766 121.956 C 119.938 121.751,123.605 118.035,127.915 113.698 C 132.224 109.361,135.787 105.774,135.833 105.726 C 135.879 105.678,135.771 105.533,135.593 105.403 C 135.079 105.027,102.804 105.051,102.491 105.427 " stroke="none" fill="#9bb5f5" fill-rule="evenodd"></path></g></svg>