<svg version="1.1" id="Layer_1" xmlns="http://www.w3.org/2000/svg" xmlns:xlink="http://www.w3.org/1999/xlink" x="0px" y="0px"
	 width="100%" viewBox="0 0 600 200" enable-background="new 0 0 600 200" xml:space="preserve">
<path fill="#FDFDFD" opacity="1.000000" stroke="none" 
	d="
M380.000000,201.000000 
	C253.372757,201.000000 127.245506,201.000000 1.059131,201.000000 
	C1.059131,134.393631 1.059131,67.787193 1.059131,1.090375 
	C200.877228,1.090375 400.754486,1.090375 600.815918,1.090375 
	C600.815918,67.666267 600.815918,134.333084 600.815918,201.000000 
	C527.453918,201.000000 453.976959,201.000000 380.000000,201.000000 
M195.463272,141.321136 
	C198.204620,138.268280 200.872940,135.145767 203.703293,132.177826 
	C208.779297,126.855125 213.952744,121.625351 219.667099,115.759705 
	C202.546616,115.759705 186.491669,115.759705 168.979568,115.759705 
	C177.013382,123.664116 184.132690,130.592239 191.137299,137.634445 
	C192.331589,138.835175 193.034790,140.524323 193.362228,142.266815 
	C185.573959,150.051941 177.785675,157.837051 169.300262,166.319016 
	C186.675705,166.319016 202.705566,166.319016 219.881332,166.319016 
	C211.293045,157.744064 203.452667,149.915878 195.463272,141.321136 
M207.168976,54.369602 
	C199.311157,21.019020 166.561981,-0.746307 133.247437,5.240844 
	C101.819054,10.889021 75.795326,41.669796 79.622139,68.937088 
	C91.653976,68.937088 103.717758,68.937088 115.743507,68.937088 
	C118.123741,52.360924 128.063171,42.377808 142.757202,41.637913 
	C149.488144,41.298996 155.589722,43.172417 160.989380,47.194645 
	C168.229370,52.587727 171.533966,60.139874 172.333374,68.845772 
	C184.730515,68.845772 196.778473,68.845772 209.395462,68.845772 
	C208.681366,64.008209 208.030014,59.595631 207.168976,54.369602 
M506.879700,24.569988 
	C487.656738,15.412079 467.272644,20.869816 447.327576,19.046146 
	C447.327576,25.405209 447.327576,30.959658 447.327576,36.850273 
	C459.629028,36.850273 471.596985,36.771694 483.562744,36.899448 
	C487.030670,36.936478 490.582245,37.188591 493.940155,37.991638 
	C504.719482,40.569534 512.082825,49.061947 512.422668,58.846020 
	C512.750916,68.296448 505.952759,76.965233 495.225830,80.092346 
	C491.449219,81.193306 487.384796,81.670952 483.437683,81.752831 
	C472.780579,81.973877 462.115814,81.817619 451.454193,81.843231 
	C450.034210,81.846649 448.614685,82.036346 447.312683,82.131195 
	C447.312683,87.993156 447.312683,93.404770 447.312683,99.079155 
	C459.773529,99.079155 471.954773,99.682587 484.038940,98.860054 
	C491.677216,98.340149 499.617523,96.751816 506.641357,93.790359 
	C524.468506,86.273926 533.611389,69.293953 529.950989,52.056744 
	C527.226501,39.226700 518.838989,30.800980 506.879700,24.569988 
M118.006294,152.495346 
	C118.006294,137.743652 118.006294,122.991959 118.006294,108.286850 
	C87.401718,105.868523 56.105614,135.696472 58.660217,167.273743 
	C78.351791,167.273743 98.045525,167.273743 118.006294,167.273743 
	C118.006294,162.451614 118.006294,157.972290 118.006294,152.495346 
M280.062805,31.263941 
	C288.117371,56.421841 311.654022,70.117477 336.132843,63.890270 
	C356.045319,58.824699 373.130768,36.282948 369.602814,19.213461 
	C367.224762,19.213461 364.758057,19.213469 362.291351,19.213459 
	C354.491058,19.213432 354.491058,19.213432 352.481628,26.596104 
	C348.693146,40.514847 336.592316,48.922962 321.625488,48.036125 
	C308.803040,47.276348 297.983337,36.694500 295.771759,22.969843 
	C295.558228,21.644764 294.335236,19.490923 293.459290,19.428520 
	C288.590393,19.081665 283.683990,19.262104 278.213562,19.262104 
	C278.881287,23.624317 279.403992,27.038927 280.062805,31.263941 
M392.805359,131.529358 
	C396.074738,137.898193 401.862122,141.013321 408.486237,143.304596 
	C394.841492,149.188766 388.935394,156.861847 390.537048,166.443024 
	C405.846619,166.443024 421.162292,166.443024 436.715027,166.443024 
	C435.679321,154.335587 429.325043,147.138290 417.839478,143.444717 
	C429.207306,139.514404 435.925018,132.486694 436.661682,120.416130 
	C420.900909,120.416130 405.562347,120.416130 389.221008,120.416130 
	C390.423065,124.346573 391.421204,127.610229 392.805359,131.529358 
M519.278809,115.811127 
	C502.645416,132.446121 486.012024,149.081116 468.832184,166.262634 
	C487.355164,166.262634 504.749390,166.262634 522.380920,166.262634 
	C522.380920,148.570190 522.380920,131.194458 522.380920,113.190269 
	C521.210632,114.146339 520.491089,114.734138 519.278809,115.811127 
z"/>
<path fill="#8F1131" opacity="1.000000" stroke="none" 
	d="
M207.273804,54.776325 
	C208.030014,59.595631 208.681366,64.008209 209.395462,68.845772 
	C196.778473,68.845772 184.730515,68.845772 172.333374,68.845772 
	C171.533966,60.139874 168.229370,52.587727 160.989380,47.194645 
	C155.589722,43.172417 149.488144,41.298996 142.757202,41.637913 
	C128.063171,42.377808 118.123741,52.360924 115.743507,68.937088 
	C103.717758,68.937088 91.653976,68.937088 79.622139,68.937088 
	C75.795326,41.669796 101.819054,10.889021 133.247437,5.240844 
	C166.561981,-0.746307 199.311157,21.019020 207.273804,54.776325 
z"/>
<path fill="#FF3434" opacity="1.000000" stroke="none" 
	d="
M507.217743,24.730873 
	C518.838989,30.800980 527.226501,39.226700 529.950989,52.056744 
	C533.611389,69.293953 524.468506,86.273926 506.641357,93.790359 
	C499.617523,96.751816 491.677216,98.340149 484.038940,98.860054 
	C471.954773,99.682587 459.773529,99.079155 447.312683,99.079155 
	C447.312683,93.404770 447.312683,87.993156 447.312683,82.131195 
	C448.614685,82.036346 450.034210,81.846649 451.454193,81.843231 
	C462.115814,81.817619 472.780579,81.973877 483.437683,81.752831 
	C487.384796,81.670952 491.449219,81.193306 495.225830,80.092346 
	C505.952759,76.965233 512.750916,68.296448 512.422668,58.846020 
	C512.082825,49.061947 504.719482,40.569534 493.940155,37.991638 
	C490.582245,37.188591 487.030670,36.936478 483.562744,36.899448 
	C471.596985,36.771694 459.629028,36.850273 447.327576,36.850273 
	C447.327576,30.959658 447.327576,25.405209 447.327576,19.046146 
	C467.272644,20.869816 487.656738,15.412079 507.217743,24.730873 
z"/>
<path fill="#0498B3" opacity="1.000000" stroke="none" 
	d="
M118.006294,152.994171 
	C118.006294,157.972290 118.006294,162.451614 118.006294,167.273743 
	C98.045525,167.273743 78.351791,167.273743 58.660217,167.273743 
	C56.105614,135.696472 87.401718,105.868523 118.006294,108.286850 
	C118.006294,122.991959 118.006294,137.743652 118.006294,152.994171 
z"/>
<path fill="#FF9350" opacity="1.000000" stroke="none" 
	d="
M279.994751,30.858738 
	C279.403992,27.038927 278.881287,23.624317 278.213562,19.262104 
	C283.683990,19.262104 288.590393,19.081665 293.459290,19.428520 
	C294.335236,19.490923 295.558228,21.644764 295.771759,22.969843 
	C297.983337,36.694500 308.803040,47.276348 321.625488,48.036125 
	C336.592316,48.922962 348.693146,40.514847 352.481628,26.596104 
	C354.491058,19.213432 354.491058,19.213432 362.291351,19.213459 
	C364.758057,19.213469 367.224762,19.213461 369.602814,19.213461 
	C373.130768,36.282948 356.045319,58.824699 336.132843,63.890270 
	C311.654022,70.117477 288.117371,56.421841 279.994751,30.858738 
z"/>
<path fill="#FFDE5C" opacity="1.000000" stroke="none" 
	d="
M392.612366,131.201630 
	C391.421204,127.610229 390.423065,124.346573 389.221008,120.416130 
	C405.562347,120.416130 420.900909,120.416130 436.661682,120.416130 
	C435.925018,132.486694 429.207306,139.514404 417.839478,143.444717 
	C429.325043,147.138290 435.679321,154.335587 436.715027,166.443024 
	C421.162292,166.443024 405.846619,166.443024 390.537048,166.443024 
	C388.935394,156.861847 394.841492,149.188766 408.486237,143.304596 
	C401.862122,141.013321 396.074738,137.898193 392.612366,131.201630 
z"/>
<path fill="#09C168" opacity="1.000000" stroke="none" 
	d="
M519.525208,115.566536 
	C520.491089,114.734138 521.210632,114.146339 522.380920,113.190269 
	C522.380920,131.194458 522.380920,148.570190 522.380920,166.262634 
	C504.749390,166.262634 487.355164,166.262634 468.832184,166.262634 
	C486.012024,149.081116 502.645416,132.446121 519.525208,115.566536 
z"/>
<path fill="#5976FF" opacity="1.000000" stroke="none" 
	d="
M195.612305,142.087677 
	C203.452667,149.915878 211.293045,157.744064 219.881332,166.319016 
	C202.705566,166.319016 186.675705,166.319016 169.300262,166.319016 
	C177.785675,157.837051 185.573959,150.051941 193.938782,142.134521 
	C194.880997,142.030716 195.246643,142.059204 195.612305,142.087677 
z"/>
<path fill="#5977FF" opacity="1.000000" stroke="none" 
	d="
M195.537781,141.704407 
	C195.246643,142.059204 194.880997,142.030716 194.240112,141.995026 
	C193.034790,140.524323 192.331589,138.835175 191.137299,137.634445 
	C184.132690,130.592239 177.013382,123.664116 168.979568,115.759705 
	C186.491669,115.759705 202.546616,115.759705 219.667099,115.759705 
	C213.952744,121.625351 208.779297,126.855125 203.703293,132.177826 
	C200.872940,135.145767 198.204620,138.268280 195.537781,141.704407 
z"/>
</svg>